<svg width="1754" height="406" viewBox="0 0 1754 406" fill="none" xmlns="http://www.w3.org/2000/svg">
<path d="M576.439 216.236C576.439 202.594 579.118 190.495 584.478 179.939C589.999 169.383 597.47 161.263 606.889 155.579C616.308 149.895 626.783 147.053 638.313 147.053C647.083 147.053 655.446 149.002 663.404 152.9C671.362 156.635 677.695 161.669 682.405 168.003V103.936H716.996V284.2H682.405V264.225C678.182 270.883 672.255 276.242 664.622 280.302C656.989 284.362 648.138 286.392 638.07 286.392C626.702 286.392 616.308 283.469 606.889 277.623C597.47 271.776 589.999 263.575 584.478 253.019C579.118 242.301 576.439 230.04 576.439 216.236ZM682.648 216.723C682.648 208.44 681.024 201.376 677.776 195.53C674.528 189.521 670.144 184.974 664.622 181.888C659.1 178.64 653.173 177.016 646.839 177.016C640.506 177.016 634.659 178.559 629.3 181.644C623.941 184.73 619.556 189.277 616.146 195.286C612.898 201.132 611.274 208.116 611.274 216.236C611.274 224.356 612.898 231.501 616.146 237.672C619.556 243.681 623.941 248.31 629.3 251.558C634.822 254.806 640.668 256.43 646.839 256.43C653.173 256.43 659.1 254.887 664.622 251.801C670.144 248.553 674.528 244.006 677.776 238.16C681.024 232.151 682.648 225.005 682.648 216.723Z" fill="#33CC95"/>
<path d="M790.011 177.26V242.544C790.011 247.092 791.067 250.421 793.178 252.532C795.452 254.481 799.187 255.455 804.384 255.455H820.218V284.2H798.781C770.036 284.2 755.664 270.234 755.664 242.301V177.26H739.586V149.246H755.664V115.872H790.011V149.246H820.218V177.26H790.011Z" fill="#33CC95"/>
<path d="M1070.39 147.297C1086.95 147.297 1100.27 152.412 1110.34 162.644C1120.57 172.712 1125.69 186.841 1125.69 205.03V284.2H1091.58V209.658C1091.58 199.102 1088.9 191.064 1083.54 185.542C1078.18 179.858 1070.88 177.016 1061.62 177.016C1052.36 177.016 1044.97 179.858 1039.45 185.542C1034.09 191.064 1031.41 199.102 1031.41 209.658V284.2H997.309V209.658C997.309 199.102 994.629 191.064 989.27 185.542C983.911 179.858 976.603 177.016 967.346 177.016C957.927 177.016 950.457 179.858 944.935 185.542C939.576 191.064 936.896 199.102 936.896 209.658V284.2H902.792V149.246H936.896V165.567C941.281 159.883 946.884 155.417 953.705 152.169C960.688 148.921 968.321 147.297 976.603 147.297C987.159 147.297 996.578 149.57 1004.86 154.118C1013.14 158.502 1019.56 164.836 1024.11 173.118C1028.49 165.323 1034.82 159.071 1043.11 154.361C1051.55 149.652 1060.65 147.297 1070.39 147.297Z" fill="#33CC95"/>
<path d="M1217.97 286.392C1204.98 286.392 1193.29 283.55 1182.9 277.866C1172.5 272.02 1164.3 263.819 1158.29 253.263C1152.45 242.707 1149.52 230.527 1149.52 216.723C1149.52 202.919 1152.53 190.739 1158.54 180.183C1164.71 169.627 1173.07 161.507 1183.63 155.823C1194.18 149.976 1205.96 147.053 1218.95 147.053C1231.94 147.053 1243.71 149.976 1254.27 155.823C1264.83 161.507 1273.11 169.627 1279.12 180.183C1285.29 190.739 1288.37 202.919 1288.37 216.723C1288.37 230.527 1285.21 242.707 1278.87 253.263C1272.7 263.819 1264.26 272.02 1253.54 277.866C1242.98 283.55 1231.13 286.392 1217.97 286.392ZM1217.97 256.673C1224.15 256.673 1229.91 255.212 1235.27 252.288C1240.79 249.203 1245.18 244.656 1248.42 238.647C1251.67 232.638 1253.3 225.33 1253.3 216.723C1253.3 203.893 1249.89 194.068 1243.07 187.247C1236.41 180.264 1228.21 176.772 1218.46 176.772C1208.72 176.772 1200.52 180.264 1193.86 187.247C1187.36 194.068 1184.11 203.893 1184.11 216.723C1184.11 229.552 1187.28 239.459 1193.61 246.442C1200.11 253.263 1208.23 256.673 1217.97 256.673Z" fill="#33CC95"/>
<path d="M1388.18 147.297C1404.25 147.297 1417.25 152.412 1427.15 162.644C1437.06 172.712 1442.01 186.841 1442.01 205.03V284.2H1407.91V209.658C1407.91 198.94 1405.23 190.739 1399.87 185.055C1394.51 179.208 1387.2 176.285 1377.95 176.285C1368.53 176.285 1361.06 179.208 1355.53 185.055C1350.18 190.739 1347.5 198.94 1347.5 209.658V284.2H1313.39V149.246H1347.5V166.054C1352.04 160.208 1357.81 155.66 1364.79 152.412C1371.94 149.002 1379.73 147.297 1388.18 147.297Z" fill="#33CC95"/>
<path d="M1599.9 213.8C1599.9 218.672 1599.57 223.056 1598.92 226.954H1500.27C1501.08 236.698 1504.49 244.331 1510.5 249.852C1516.51 255.374 1523.89 258.135 1532.66 258.135C1545.33 258.135 1554.34 252.694 1559.7 241.814H1596.49C1592.59 254.806 1585.12 265.524 1574.08 273.969C1563.03 282.251 1549.47 286.392 1533.39 286.392C1520.4 286.392 1508.71 283.55 1498.32 277.866C1488.09 272.02 1480.05 263.819 1474.2 253.263C1468.52 242.707 1465.67 230.527 1465.67 216.723C1465.67 202.756 1468.52 190.495 1474.2 179.939C1479.88 169.383 1487.84 161.263 1498.07 155.579C1508.3 149.895 1520.08 147.053 1533.39 147.053C1546.22 147.053 1557.67 149.814 1567.74 155.336C1577.97 160.857 1585.85 168.734 1591.37 178.965C1597.06 189.034 1599.9 200.645 1599.9 213.8ZM1564.58 204.056C1564.41 195.286 1561.25 188.303 1555.08 183.106C1548.9 177.747 1541.35 175.067 1532.42 175.067C1523.98 175.067 1516.83 177.666 1510.98 182.862C1505.3 187.897 1501.81 194.961 1500.51 204.056H1564.58Z" fill="#33CC95"/>
<path d="M1753.9 149.246L1670.34 348.023H1634.05L1663.28 280.79L1609.2 149.246H1647.45L1682.28 243.519L1717.6 149.246H1753.9Z" fill="#33CC95"/>
<path d="M346.543 59.4568C308.202 21.1152 257.223 0 203 0C148.777 0 97.7984 21.1152 59.4568 59.4568C21.1152 97.7984 0 148.777 0 203C0 257.223 21.116 308.201 59.4568 346.543C97.7976 384.886 148.777 406 203 406C257.223 406 308.202 384.885 346.543 346.543C384.885 308.202 406 257.223 406 203C406 148.777 384.884 97.7992 346.543 59.4568Z" fill="#33CC95"/>
<path d="M208.8 81.2001V336.4" stroke="white" stroke-width="18" stroke-linecap="round" stroke-linejoin="round"/>
<path d="M266.799 127.6H179.799C169.032 127.6 158.705 131.877 151.091 139.491C143.477 147.105 139.199 157.432 139.199 168.2C139.199 178.968 143.477 189.294 151.091 196.908C158.705 204.522 169.032 208.8 179.799 208.8H237.799C248.567 208.8 258.894 213.077 266.508 220.691C274.122 228.305 278.399 238.632 278.399 249.4C278.399 260.168 274.122 270.494 266.508 278.108C258.894 285.722 248.567 290 237.799 290H139.199" stroke="white" stroke-width="18" stroke-linecap="round" stroke-linejoin="round"/>
</svg>
